M48
; DRILL file {KiCad (5.1.5)-3} date 25.03.2020 20:08:48
; FORMAT={-:-/ absolute / inch / decimal}
; #@! TF.CreationDate,2020-03-25T20:08:48+03:00
; #@! TF.GenerationSoftware,Kicad,Pcbnew,(5.1.5)-3
; #@! TF.FileFunction,NonPlated,1,2,NPTH
FMAT,2
INCH
T1C0.0689
T2C0.1200
T3C0.1570
%
G90
G05
T1
X8.8312Y-5.0
X9.2312Y-5.0
X2.0812Y-4.25
X2.4812Y-4.25
X7.6125Y-5.0
X8.0125Y-5.0
X8.8312Y-2.75
X9.2312Y-2.75
X9.5812Y-2.75
X9.9812Y-2.75
X7.3312Y-2.75
X7.7313Y-2.75
X6.3937Y-5.0
X6.7938Y-5.0
X8.8312Y-4.25
X9.2312Y-4.25
X4.9875Y-5.0
X5.3875Y-5.0
X10.3312Y-5.0
X10.7312Y-5.0
X1.3313Y-2.75
X1.7312Y-2.75
X10.3312Y-3.5
X10.7312Y-3.5
X1.3313Y-3.5
X1.7312Y-3.5
X2.8312Y-2.75
X3.2312Y-2.75
X5.0812Y-2.75
X5.4813Y-2.75
X7.3312Y-4.25
X7.7313Y-4.25
X6.5812Y-3.5
X6.9813Y-3.5
X3.5812Y-4.25
X3.9812Y-4.25
X2.8312Y-3.5
X3.2312Y-3.5
X2.0812Y-3.5
X2.4812Y-3.5
X2.8312Y-4.25
X3.2312Y-4.25
X3.5812Y-5.0
X3.9812Y-5.0
X5.0812Y-4.25
X5.4813Y-4.25
X8.0812Y-4.25
X8.4812Y-4.25
X5.0812Y-3.5
X5.4813Y-3.5
X4.3312Y-3.5
X4.7313Y-3.5
X5.8312Y-3.5
X6.2313Y-3.5
X2.0812Y-5.0
X2.4812Y-5.0
X8.0812Y-3.5
X8.4812Y-3.5
X8.8312Y-3.5
X9.2312Y-3.5
X3.5812Y-3.5
X3.9812Y-3.5
X10.3312Y-2.75
X10.7312Y-2.75
X9.5812Y-3.5
X9.9812Y-3.5
X10.3312Y-4.25
X10.7312Y-4.25
X1.3313Y-4.25
X1.7312Y-4.25
X2.8312Y-5.0
X3.2312Y-5.0
X6.5812Y-4.25
X6.9813Y-4.25
X6.5812Y-2.75
X6.9813Y-2.75
X2.0812Y-2.75
X2.4812Y-2.75
X3.5812Y-2.75
X3.9812Y-2.75
X9.5812Y-4.25
X9.9812Y-4.25
X4.3312Y-4.25
X4.7313Y-4.25
X7.3312Y-3.5
X7.7313Y-3.5
X9.5812Y-5.0
X9.9812Y-5.0
X8.0812Y-2.75
X8.4812Y-2.75
X4.3312Y-2.75
X4.7313Y-2.75
X5.8312Y-2.75
X6.2313Y-2.75
X1.3313Y-5.0
X1.7312Y-5.0
X5.8312Y-4.25
X6.2313Y-4.25
T2
X7.3425Y-5.275
X8.2825Y-5.275
X4.7175Y-5.275
X5.6575Y-5.275
T3
X10.5312Y-2.75
X9.7812Y-3.5
X10.5312Y-4.25
X1.5312Y-4.25
X3.0312Y-5.0
X6.7812Y-4.25
X6.7812Y-2.75
X2.2812Y-2.75
X3.7812Y-2.75
X9.7812Y-4.25
X4.5312Y-4.25
X7.5312Y-3.5
X9.7812Y-5.0
X8.2812Y-2.75
X4.5312Y-2.75
X6.0312Y-2.75
X1.5312Y-5.0
X6.0312Y-4.25
X9.0312Y-5.0
X2.2812Y-4.25
X7.3425Y-4.675
X7.8125Y-5.0
X8.2825Y-4.675
X9.0312Y-2.75
X9.7812Y-2.75
X7.5312Y-2.75
X6.5938Y-5.0
X9.0312Y-4.25
X4.7175Y-4.675
X5.1875Y-5.0
X5.6575Y-4.675
X10.5312Y-5.0
X1.5312Y-2.75
X10.5312Y-3.5
X1.5312Y-3.5
X3.0312Y-2.75
X5.2812Y-2.75
X7.5312Y-4.25
X6.7812Y-3.5
X3.7812Y-4.25
X3.0312Y-3.5
X2.2812Y-3.5
X3.0312Y-4.25
X3.7812Y-5.0
X5.2812Y-4.25
X8.2812Y-4.25
X5.2812Y-3.5
X4.5312Y-3.5
X6.0312Y-3.5
X2.2812Y-5.0
X8.2812Y-3.5
X9.0312Y-3.5
X3.7812Y-3.5
T0
M30
