M48
; DRILL file {KiCad (5.1.5)-3} date 25.03.2020 20:08:48
; FORMAT={-:-/ absolute / inch / decimal}
; #@! TF.CreationDate,2020-03-25T20:08:48+03:00
; #@! TF.GenerationSoftware,Kicad,Pcbnew,(5.1.5)-3
; #@! TF.FileFunction,Plated,1,2,PTH
FMAT,2
INCH
T1C0.0157
T2C0.0276
T3C0.0579
%
G90
G05
T1
X1.4688Y-3.6875
X1.8438Y-2.875
X1.9062Y-3.125
X1.9688Y-5.2812
X2.0625Y-2.8438
X2.1875Y-3.75
X2.75Y-3.0938
X2.75Y-3.875
X2.9688Y-3.9688
X3.0938Y-3.875
X3.2812Y-3.875
X3.2812Y-4.0
X3.4415Y-4.6522
X3.4751Y-5.1626
X3.5Y-3.1875
X3.5Y-3.6875
X3.5312Y-4.6875
X3.75Y-4.0
X5.125Y-4.5625
X5.1875Y-4.75
X5.25Y-4.625
X5.375Y-4.875
X5.375Y-5.125
X5.4688Y-4.625
X5.4688Y-4.7188
X5.5Y-4.5312
X5.5Y-4.6875
X5.5312Y-4.875
X5.5312Y-5.125
X5.5938Y-4.4375
X5.625Y-3.1562
X5.625Y-4.8125
X5.6562Y-4.375
X5.6562Y-4.5312
X5.6562Y-4.8438
X5.6875Y-4.2812
X5.6875Y-4.4375
X5.6875Y-4.5625
X5.6875Y-4.9688
X5.7188Y-4.4062
X5.7188Y-5.0626
X5.75Y-4.375
X5.75Y-4.5312
X5.75Y-5.1562
X5.7812Y-2.9688
X5.7812Y-3.0312
X5.7812Y-3.0938
X5.8125Y-4.3125
X5.8125Y-4.375
X5.8125Y-4.5822
X5.8125Y-4.7812
X5.9368Y-4.6882
X6.0Y-4.4375
X6.0Y-4.5
X6.0Y-5.2812
X6.0312Y-4.4688
X6.0312Y-5.3125
X6.0625Y-4.5625
X6.0625Y-4.6562
X6.0625Y-4.7188
X6.0938Y-4.6875
X6.0938Y-5.3125
X6.125Y-4.6562
X6.1562Y-4.7188
X6.1562Y-5.3125
X6.25Y-4.75
X6.312Y-4.937
X6.3125Y-5.0
X6.3125Y-5.0625
X6.3125Y-5.125
X6.3438Y-5.0312
X6.3438Y-5.0938
X6.3438Y-4.8751
X6.4062Y-5.2188
X6.4688Y-4.4375
X6.6562Y-4.5
X6.7812Y-4.4688
X6.8438Y-4.6562
X6.9062Y-5.1562
X6.9688Y-4.4062
X7.0938Y-4.875
X7.125Y-5.25
X7.1562Y-3.125
X7.1875Y-3.875
X7.2188Y-3.8438
X7.2499Y-3.8125
X7.2812Y-3.7812
X7.3125Y-5.125
X7.3438Y-5.1562
X7.5312Y-4.875
X7.6562Y-4.4062
X7.9375Y-4.375
X8.7812Y-3.2188
X9.5312Y-3.1875
X10.2812Y-3.1562
T3
X10.3812Y-2.65
X10.4328Y-2.5925
X10.6297Y-2.5728
X10.6312Y-2.55
X9.6312Y-3.4
X9.6828Y-3.3425
X9.8797Y-3.3228
X9.8812Y-3.3
X10.3812Y-4.15
X10.4328Y-4.0925
X10.6297Y-4.0728
X10.6312Y-4.05
X1.3812Y-4.15
X1.4328Y-4.0925
X1.6297Y-4.0728
X1.6312Y-4.05
X2.8813Y-4.9
X2.9328Y-4.8425
X3.1297Y-4.8228
X3.1313Y-4.8
X6.6312Y-4.15
X6.6828Y-4.0925
X6.8797Y-4.0728
X6.8812Y-4.05
X6.6312Y-2.65
X6.6828Y-2.5925
X6.8797Y-2.5728
X6.8812Y-2.55
X2.1313Y-2.65
X2.1828Y-2.5925
X2.3797Y-2.5728
X2.3813Y-2.55
X3.6313Y-2.65
X3.6828Y-2.5925
X3.8797Y-2.5728
X3.8813Y-2.55
X9.6312Y-4.15
X9.6828Y-4.0925
X9.8797Y-4.0728
X9.8812Y-4.05
X4.3812Y-4.15
X4.4328Y-4.0925
X4.6297Y-4.0728
X4.6312Y-4.05
X7.3812Y-3.4
X7.4328Y-3.3425
X7.6297Y-3.3228
X7.6312Y-3.3
X9.6312Y-4.9
X9.6828Y-4.8425
X9.8797Y-4.8228
X9.8812Y-4.8
X8.1312Y-2.65
X8.1828Y-2.5925
X8.3797Y-2.5728
X8.3812Y-2.55
X4.3812Y-2.65
X4.4328Y-2.5925
X4.6297Y-2.5728
X4.6312Y-2.55
X5.8812Y-2.65
X5.9328Y-2.5925
X6.1297Y-2.5728
X6.1312Y-2.55
X1.3812Y-4.9
X1.4328Y-4.8425
X1.6297Y-4.8228
X1.6312Y-4.8
X5.8812Y-4.15
X5.9328Y-4.0925
X6.1297Y-4.0728
X6.1312Y-4.05
X8.8812Y-4.9
X8.9328Y-4.8425
X9.1297Y-4.8228
X9.1312Y-4.8
X2.1313Y-4.15
X2.1828Y-4.0925
X2.3797Y-4.0728
X2.3813Y-4.05
X7.6625Y-4.9
X7.7141Y-4.8425
X7.9109Y-4.8228
X7.9125Y-4.8
X8.8812Y-2.65
X8.9328Y-2.5925
X9.1297Y-2.5728
X9.1312Y-2.55
X9.6312Y-2.65
X9.6828Y-2.5925
X9.8797Y-2.5728
X9.8812Y-2.55
X7.3812Y-2.65
X7.4328Y-2.5925
X7.6297Y-2.5728
X7.6312Y-2.55
X6.4437Y-4.9
X6.4953Y-4.8425
X6.6922Y-4.8228
X6.6937Y-4.8
X8.8812Y-4.15
X8.9328Y-4.0925
X9.1297Y-4.0728
X9.1312Y-4.05
X5.0375Y-4.9
X5.0891Y-4.8425
X5.2859Y-4.8228
X5.2875Y-4.8
X10.3812Y-4.9
X10.4328Y-4.8425
X10.6297Y-4.8228
X10.6312Y-4.8
X1.3812Y-2.65
X1.4328Y-2.5925
X1.6297Y-2.5728
X1.6312Y-2.55
X10.3812Y-3.4
X10.4328Y-3.3425
X10.6297Y-3.3228
X10.6312Y-3.3
X1.3812Y-3.4
X1.4328Y-3.3425
X1.6297Y-3.3228
X1.6312Y-3.3
X2.8813Y-2.65
X2.9328Y-2.5925
X3.1297Y-2.5728
X3.1313Y-2.55
X5.1312Y-2.65
X5.1828Y-2.5925
X5.3797Y-2.5728
X5.3812Y-2.55
X7.3812Y-4.15
X7.4328Y-4.0925
X7.6297Y-4.0728
X7.6312Y-4.05
X6.6312Y-3.4
X6.6828Y-3.3425
X6.8797Y-3.3228
X6.8812Y-3.3
X3.6313Y-4.15
X3.6828Y-4.0925
X3.8797Y-4.0728
X3.8813Y-4.05
X2.8813Y-3.4
X2.9328Y-3.3425
X3.1297Y-3.3228
X3.1313Y-3.3
X2.1313Y-3.4
X2.1828Y-3.3425
X2.3797Y-3.3228
X2.3813Y-3.3
X2.8813Y-4.15
X2.9328Y-4.0925
X3.1297Y-4.0728
X3.1313Y-4.05
X3.6313Y-4.9
X3.6828Y-4.8425
X3.8797Y-4.8228
X3.8813Y-4.8
X5.1312Y-4.15
X5.1828Y-4.0925
X5.3797Y-4.0728
X5.3812Y-4.05
X8.1312Y-4.15
X8.1828Y-4.0925
X8.3797Y-4.0728
X8.3812Y-4.05
X5.1312Y-3.4
X5.1828Y-3.3425
X5.3797Y-3.3228
X5.3812Y-3.3
X4.3812Y-3.4
X4.4328Y-3.3425
X4.6297Y-3.3228
X4.6312Y-3.3
X5.8812Y-3.4
X5.9328Y-3.3425
X6.1297Y-3.3228
X6.1312Y-3.3
X2.1313Y-4.9
X2.1828Y-4.8425
X2.3797Y-4.8228
X2.3813Y-4.8
X8.1312Y-3.4
X8.1828Y-3.3425
X8.3797Y-3.3228
X8.3812Y-3.3
X8.8812Y-3.4
X8.9328Y-3.3425
X9.1297Y-3.3228
X9.1312Y-3.3
X3.6313Y-3.4
X3.6828Y-3.3425
X3.8797Y-3.3228
X3.8813Y-3.3
T2
G00X1.7625Y-2.1951
M15
G01X1.7625Y-2.2424
M16
G05
G00X1.7625Y-2.3723
M15
G01X1.7625Y-2.4195
M16
G05
G00X2.05Y-2.1951
M15
G01X2.05Y-2.2424
M16
G05
G00X2.05Y-2.3723
M15
G01X2.05Y-2.4195
M16
G05
T0
M30
