G04 #@! TF.GenerationSoftware,KiCad,Pcbnew,(5.1.5)-3*
G04 #@! TF.CreationDate,2020-03-25T20:08:38+03:00*
G04 #@! TF.ProjectId,Bakers-dozen,42616b65-7273-42d6-946f-7a656e2e6b69,rev?*
G04 #@! TF.SameCoordinates,Original*
G04 #@! TF.FileFunction,Paste,Bot*
G04 #@! TF.FilePolarity,Positive*
%FSLAX46Y46*%
G04 Gerber Fmt 4.6, Leading zero omitted, Abs format (unit mm)*
G04 Created by KiCad (PCBNEW (5.1.5)-3) date 2020-03-25 20:08:38*
%MOMM*%
%LPD*%
G04 APERTURE LIST*
%ADD10R,1.400000X1.200000*%
%ADD11R,0.500000X2.250000*%
%ADD12R,0.550000X1.500000*%
%ADD13R,1.500000X0.550000*%
%ADD14R,1.800000X1.100000*%
%ADD15C,0.100000*%
%ADD16R,1.200000X0.900000*%
G04 APERTURE END LIST*
D10*
X161618750Y-116737500D03*
X163818750Y-116737500D03*
X163818750Y-115037500D03*
X161618750Y-115037500D03*
D11*
X46818750Y-60856250D03*
X47618750Y-60856250D03*
X48418750Y-60856250D03*
X49218750Y-60856250D03*
X50018750Y-60856250D03*
D12*
X149193750Y-132700000D03*
X149993750Y-132700000D03*
X150793750Y-132700000D03*
X151593750Y-132700000D03*
X152393750Y-132700000D03*
X153193750Y-132700000D03*
X153993750Y-132700000D03*
X154793750Y-132700000D03*
X155593750Y-132700000D03*
X156393750Y-132700000D03*
X157193750Y-132700000D03*
D13*
X158893750Y-131000000D03*
X158893750Y-130200000D03*
X158893750Y-129400000D03*
X158893750Y-128600000D03*
X158893750Y-127800000D03*
X158893750Y-127000000D03*
X158893750Y-126200000D03*
X158893750Y-125400000D03*
X158893750Y-124600000D03*
X158893750Y-123800000D03*
X158893750Y-123000000D03*
D12*
X157193750Y-121300000D03*
X156393750Y-121300000D03*
X155593750Y-121300000D03*
X154793750Y-121300000D03*
X153993750Y-121300000D03*
X153193750Y-121300000D03*
X152393750Y-121300000D03*
X151593750Y-121300000D03*
X150793750Y-121300000D03*
X149993750Y-121300000D03*
X149193750Y-121300000D03*
D13*
X147493750Y-123000000D03*
X147493750Y-123800000D03*
X147493750Y-124600000D03*
X147493750Y-125400000D03*
X147493750Y-126200000D03*
X147493750Y-127000000D03*
X147493750Y-127800000D03*
X147493750Y-128600000D03*
X147493750Y-129400000D03*
X147493750Y-130200000D03*
X147493750Y-131000000D03*
D14*
X89618750Y-100275000D03*
X83418750Y-96575000D03*
X89618750Y-96575000D03*
X83418750Y-100275000D03*
D15*
G36*
X61598892Y-79826174D02*
G01*
X61622553Y-79829684D01*
X61645757Y-79835496D01*
X61668279Y-79843554D01*
X61689903Y-79853782D01*
X61710420Y-79866079D01*
X61729633Y-79880329D01*
X61747357Y-79896393D01*
X61763421Y-79914117D01*
X61777671Y-79933330D01*
X61789968Y-79953847D01*
X61800196Y-79975471D01*
X61808254Y-79997993D01*
X61814066Y-80021197D01*
X61817576Y-80044858D01*
X61818750Y-80068750D01*
X61818750Y-80556250D01*
X61817576Y-80580142D01*
X61814066Y-80603803D01*
X61808254Y-80627007D01*
X61800196Y-80649529D01*
X61789968Y-80671153D01*
X61777671Y-80691670D01*
X61763421Y-80710883D01*
X61747357Y-80728607D01*
X61729633Y-80744671D01*
X61710420Y-80758921D01*
X61689903Y-80771218D01*
X61668279Y-80781446D01*
X61645757Y-80789504D01*
X61622553Y-80795316D01*
X61598892Y-80798826D01*
X61575000Y-80800000D01*
X60662500Y-80800000D01*
X60638608Y-80798826D01*
X60614947Y-80795316D01*
X60591743Y-80789504D01*
X60569221Y-80781446D01*
X60547597Y-80771218D01*
X60527080Y-80758921D01*
X60507867Y-80744671D01*
X60490143Y-80728607D01*
X60474079Y-80710883D01*
X60459829Y-80691670D01*
X60447532Y-80671153D01*
X60437304Y-80649529D01*
X60429246Y-80627007D01*
X60423434Y-80603803D01*
X60419924Y-80580142D01*
X60418750Y-80556250D01*
X60418750Y-80068750D01*
X60419924Y-80044858D01*
X60423434Y-80021197D01*
X60429246Y-79997993D01*
X60437304Y-79975471D01*
X60447532Y-79953847D01*
X60459829Y-79933330D01*
X60474079Y-79914117D01*
X60490143Y-79896393D01*
X60507867Y-79880329D01*
X60527080Y-79866079D01*
X60547597Y-79853782D01*
X60569221Y-79843554D01*
X60591743Y-79835496D01*
X60614947Y-79829684D01*
X60638608Y-79826174D01*
X60662500Y-79825000D01*
X61575000Y-79825000D01*
X61598892Y-79826174D01*
G37*
G36*
X61598892Y-77951174D02*
G01*
X61622553Y-77954684D01*
X61645757Y-77960496D01*
X61668279Y-77968554D01*
X61689903Y-77978782D01*
X61710420Y-77991079D01*
X61729633Y-78005329D01*
X61747357Y-78021393D01*
X61763421Y-78039117D01*
X61777671Y-78058330D01*
X61789968Y-78078847D01*
X61800196Y-78100471D01*
X61808254Y-78122993D01*
X61814066Y-78146197D01*
X61817576Y-78169858D01*
X61818750Y-78193750D01*
X61818750Y-78681250D01*
X61817576Y-78705142D01*
X61814066Y-78728803D01*
X61808254Y-78752007D01*
X61800196Y-78774529D01*
X61789968Y-78796153D01*
X61777671Y-78816670D01*
X61763421Y-78835883D01*
X61747357Y-78853607D01*
X61729633Y-78869671D01*
X61710420Y-78883921D01*
X61689903Y-78896218D01*
X61668279Y-78906446D01*
X61645757Y-78914504D01*
X61622553Y-78920316D01*
X61598892Y-78923826D01*
X61575000Y-78925000D01*
X60662500Y-78925000D01*
X60638608Y-78923826D01*
X60614947Y-78920316D01*
X60591743Y-78914504D01*
X60569221Y-78906446D01*
X60547597Y-78896218D01*
X60527080Y-78883921D01*
X60507867Y-78869671D01*
X60490143Y-78853607D01*
X60474079Y-78835883D01*
X60459829Y-78816670D01*
X60447532Y-78796153D01*
X60437304Y-78774529D01*
X60429246Y-78752007D01*
X60423434Y-78728803D01*
X60419924Y-78705142D01*
X60418750Y-78681250D01*
X60418750Y-78193750D01*
X60419924Y-78169858D01*
X60423434Y-78146197D01*
X60429246Y-78122993D01*
X60437304Y-78100471D01*
X60447532Y-78078847D01*
X60459829Y-78058330D01*
X60474079Y-78039117D01*
X60490143Y-78021393D01*
X60507867Y-78005329D01*
X60527080Y-77991079D01*
X60547597Y-77978782D01*
X60569221Y-77968554D01*
X60591743Y-77960496D01*
X60614947Y-77954684D01*
X60638608Y-77951174D01*
X60662500Y-77950000D01*
X61575000Y-77950000D01*
X61598892Y-77951174D01*
G37*
G36*
X52073892Y-77951174D02*
G01*
X52097553Y-77954684D01*
X52120757Y-77960496D01*
X52143279Y-77968554D01*
X52164903Y-77978782D01*
X52185420Y-77991079D01*
X52204633Y-78005329D01*
X52222357Y-78021393D01*
X52238421Y-78039117D01*
X52252671Y-78058330D01*
X52264968Y-78078847D01*
X52275196Y-78100471D01*
X52283254Y-78122993D01*
X52289066Y-78146197D01*
X52292576Y-78169858D01*
X52293750Y-78193750D01*
X52293750Y-78681250D01*
X52292576Y-78705142D01*
X52289066Y-78728803D01*
X52283254Y-78752007D01*
X52275196Y-78774529D01*
X52264968Y-78796153D01*
X52252671Y-78816670D01*
X52238421Y-78835883D01*
X52222357Y-78853607D01*
X52204633Y-78869671D01*
X52185420Y-78883921D01*
X52164903Y-78896218D01*
X52143279Y-78906446D01*
X52120757Y-78914504D01*
X52097553Y-78920316D01*
X52073892Y-78923826D01*
X52050000Y-78925000D01*
X51137500Y-78925000D01*
X51113608Y-78923826D01*
X51089947Y-78920316D01*
X51066743Y-78914504D01*
X51044221Y-78906446D01*
X51022597Y-78896218D01*
X51002080Y-78883921D01*
X50982867Y-78869671D01*
X50965143Y-78853607D01*
X50949079Y-78835883D01*
X50934829Y-78816670D01*
X50922532Y-78796153D01*
X50912304Y-78774529D01*
X50904246Y-78752007D01*
X50898434Y-78728803D01*
X50894924Y-78705142D01*
X50893750Y-78681250D01*
X50893750Y-78193750D01*
X50894924Y-78169858D01*
X50898434Y-78146197D01*
X50904246Y-78122993D01*
X50912304Y-78100471D01*
X50922532Y-78078847D01*
X50934829Y-78058330D01*
X50949079Y-78039117D01*
X50965143Y-78021393D01*
X50982867Y-78005329D01*
X51002080Y-77991079D01*
X51022597Y-77978782D01*
X51044221Y-77968554D01*
X51066743Y-77960496D01*
X51089947Y-77954684D01*
X51113608Y-77951174D01*
X51137500Y-77950000D01*
X52050000Y-77950000D01*
X52073892Y-77951174D01*
G37*
G36*
X52073892Y-79826174D02*
G01*
X52097553Y-79829684D01*
X52120757Y-79835496D01*
X52143279Y-79843554D01*
X52164903Y-79853782D01*
X52185420Y-79866079D01*
X52204633Y-79880329D01*
X52222357Y-79896393D01*
X52238421Y-79914117D01*
X52252671Y-79933330D01*
X52264968Y-79953847D01*
X52275196Y-79975471D01*
X52283254Y-79997993D01*
X52289066Y-80021197D01*
X52292576Y-80044858D01*
X52293750Y-80068750D01*
X52293750Y-80556250D01*
X52292576Y-80580142D01*
X52289066Y-80603803D01*
X52283254Y-80627007D01*
X52275196Y-80649529D01*
X52264968Y-80671153D01*
X52252671Y-80691670D01*
X52238421Y-80710883D01*
X52222357Y-80728607D01*
X52204633Y-80744671D01*
X52185420Y-80758921D01*
X52164903Y-80771218D01*
X52143279Y-80781446D01*
X52120757Y-80789504D01*
X52097553Y-80795316D01*
X52073892Y-80798826D01*
X52050000Y-80800000D01*
X51137500Y-80800000D01*
X51113608Y-80798826D01*
X51089947Y-80795316D01*
X51066743Y-80789504D01*
X51044221Y-80781446D01*
X51022597Y-80771218D01*
X51002080Y-80758921D01*
X50982867Y-80744671D01*
X50965143Y-80728607D01*
X50949079Y-80710883D01*
X50934829Y-80691670D01*
X50922532Y-80671153D01*
X50912304Y-80649529D01*
X50904246Y-80627007D01*
X50898434Y-80603803D01*
X50894924Y-80580142D01*
X50893750Y-80556250D01*
X50893750Y-80068750D01*
X50894924Y-80044858D01*
X50898434Y-80021197D01*
X50904246Y-79997993D01*
X50912304Y-79975471D01*
X50922532Y-79953847D01*
X50934829Y-79933330D01*
X50949079Y-79914117D01*
X50965143Y-79896393D01*
X50982867Y-79880329D01*
X51002080Y-79866079D01*
X51022597Y-79853782D01*
X51044221Y-79843554D01*
X51066743Y-79835496D01*
X51089947Y-79829684D01*
X51113608Y-79826174D01*
X51137500Y-79825000D01*
X52050000Y-79825000D01*
X52073892Y-79826174D01*
G37*
G36*
X56836392Y-77951174D02*
G01*
X56860053Y-77954684D01*
X56883257Y-77960496D01*
X56905779Y-77968554D01*
X56927403Y-77978782D01*
X56947920Y-77991079D01*
X56967133Y-78005329D01*
X56984857Y-78021393D01*
X57000921Y-78039117D01*
X57015171Y-78058330D01*
X57027468Y-78078847D01*
X57037696Y-78100471D01*
X57045754Y-78122993D01*
X57051566Y-78146197D01*
X57055076Y-78169858D01*
X57056250Y-78193750D01*
X57056250Y-78681250D01*
X57055076Y-78705142D01*
X57051566Y-78728803D01*
X57045754Y-78752007D01*
X57037696Y-78774529D01*
X57027468Y-78796153D01*
X57015171Y-78816670D01*
X57000921Y-78835883D01*
X56984857Y-78853607D01*
X56967133Y-78869671D01*
X56947920Y-78883921D01*
X56927403Y-78896218D01*
X56905779Y-78906446D01*
X56883257Y-78914504D01*
X56860053Y-78920316D01*
X56836392Y-78923826D01*
X56812500Y-78925000D01*
X55900000Y-78925000D01*
X55876108Y-78923826D01*
X55852447Y-78920316D01*
X55829243Y-78914504D01*
X55806721Y-78906446D01*
X55785097Y-78896218D01*
X55764580Y-78883921D01*
X55745367Y-78869671D01*
X55727643Y-78853607D01*
X55711579Y-78835883D01*
X55697329Y-78816670D01*
X55685032Y-78796153D01*
X55674804Y-78774529D01*
X55666746Y-78752007D01*
X55660934Y-78728803D01*
X55657424Y-78705142D01*
X55656250Y-78681250D01*
X55656250Y-78193750D01*
X55657424Y-78169858D01*
X55660934Y-78146197D01*
X55666746Y-78122993D01*
X55674804Y-78100471D01*
X55685032Y-78078847D01*
X55697329Y-78058330D01*
X55711579Y-78039117D01*
X55727643Y-78021393D01*
X55745367Y-78005329D01*
X55764580Y-77991079D01*
X55785097Y-77978782D01*
X55806721Y-77968554D01*
X55829243Y-77960496D01*
X55852447Y-77954684D01*
X55876108Y-77951174D01*
X55900000Y-77950000D01*
X56812500Y-77950000D01*
X56836392Y-77951174D01*
G37*
G36*
X56836392Y-79826174D02*
G01*
X56860053Y-79829684D01*
X56883257Y-79835496D01*
X56905779Y-79843554D01*
X56927403Y-79853782D01*
X56947920Y-79866079D01*
X56967133Y-79880329D01*
X56984857Y-79896393D01*
X57000921Y-79914117D01*
X57015171Y-79933330D01*
X57027468Y-79953847D01*
X57037696Y-79975471D01*
X57045754Y-79997993D01*
X57051566Y-80021197D01*
X57055076Y-80044858D01*
X57056250Y-80068750D01*
X57056250Y-80556250D01*
X57055076Y-80580142D01*
X57051566Y-80603803D01*
X57045754Y-80627007D01*
X57037696Y-80649529D01*
X57027468Y-80671153D01*
X57015171Y-80691670D01*
X57000921Y-80710883D01*
X56984857Y-80728607D01*
X56967133Y-80744671D01*
X56947920Y-80758921D01*
X56927403Y-80771218D01*
X56905779Y-80781446D01*
X56883257Y-80789504D01*
X56860053Y-80795316D01*
X56836392Y-80798826D01*
X56812500Y-80800000D01*
X55900000Y-80800000D01*
X55876108Y-80798826D01*
X55852447Y-80795316D01*
X55829243Y-80789504D01*
X55806721Y-80781446D01*
X55785097Y-80771218D01*
X55764580Y-80758921D01*
X55745367Y-80744671D01*
X55727643Y-80728607D01*
X55711579Y-80710883D01*
X55697329Y-80691670D01*
X55685032Y-80671153D01*
X55674804Y-80649529D01*
X55666746Y-80627007D01*
X55660934Y-80603803D01*
X55657424Y-80580142D01*
X55656250Y-80556250D01*
X55656250Y-80068750D01*
X55657424Y-80044858D01*
X55660934Y-80021197D01*
X55666746Y-79997993D01*
X55674804Y-79975471D01*
X55685032Y-79953847D01*
X55697329Y-79933330D01*
X55711579Y-79914117D01*
X55727643Y-79896393D01*
X55745367Y-79880329D01*
X55764580Y-79866079D01*
X55785097Y-79853782D01*
X55806721Y-79843554D01*
X55829243Y-79835496D01*
X55852447Y-79829684D01*
X55876108Y-79826174D01*
X55900000Y-79825000D01*
X56812500Y-79825000D01*
X56836392Y-79826174D01*
G37*
G36*
X137005142Y-117926174D02*
G01*
X137028803Y-117929684D01*
X137052007Y-117935496D01*
X137074529Y-117943554D01*
X137096153Y-117953782D01*
X137116670Y-117966079D01*
X137135883Y-117980329D01*
X137153607Y-117996393D01*
X137169671Y-118014117D01*
X137183921Y-118033330D01*
X137196218Y-118053847D01*
X137206446Y-118075471D01*
X137214504Y-118097993D01*
X137220316Y-118121197D01*
X137223826Y-118144858D01*
X137225000Y-118168750D01*
X137225000Y-118656250D01*
X137223826Y-118680142D01*
X137220316Y-118703803D01*
X137214504Y-118727007D01*
X137206446Y-118749529D01*
X137196218Y-118771153D01*
X137183921Y-118791670D01*
X137169671Y-118810883D01*
X137153607Y-118828607D01*
X137135883Y-118844671D01*
X137116670Y-118858921D01*
X137096153Y-118871218D01*
X137074529Y-118881446D01*
X137052007Y-118889504D01*
X137028803Y-118895316D01*
X137005142Y-118898826D01*
X136981250Y-118900000D01*
X136068750Y-118900000D01*
X136044858Y-118898826D01*
X136021197Y-118895316D01*
X135997993Y-118889504D01*
X135975471Y-118881446D01*
X135953847Y-118871218D01*
X135933330Y-118858921D01*
X135914117Y-118844671D01*
X135896393Y-118828607D01*
X135880329Y-118810883D01*
X135866079Y-118791670D01*
X135853782Y-118771153D01*
X135843554Y-118749529D01*
X135835496Y-118727007D01*
X135829684Y-118703803D01*
X135826174Y-118680142D01*
X135825000Y-118656250D01*
X135825000Y-118168750D01*
X135826174Y-118144858D01*
X135829684Y-118121197D01*
X135835496Y-118097993D01*
X135843554Y-118075471D01*
X135853782Y-118053847D01*
X135866079Y-118033330D01*
X135880329Y-118014117D01*
X135896393Y-117996393D01*
X135914117Y-117980329D01*
X135933330Y-117966079D01*
X135953847Y-117953782D01*
X135975471Y-117943554D01*
X135997993Y-117935496D01*
X136021197Y-117929684D01*
X136044858Y-117926174D01*
X136068750Y-117925000D01*
X136981250Y-117925000D01*
X137005142Y-117926174D01*
G37*
G36*
X137005142Y-116051174D02*
G01*
X137028803Y-116054684D01*
X137052007Y-116060496D01*
X137074529Y-116068554D01*
X137096153Y-116078782D01*
X137116670Y-116091079D01*
X137135883Y-116105329D01*
X137153607Y-116121393D01*
X137169671Y-116139117D01*
X137183921Y-116158330D01*
X137196218Y-116178847D01*
X137206446Y-116200471D01*
X137214504Y-116222993D01*
X137220316Y-116246197D01*
X137223826Y-116269858D01*
X137225000Y-116293750D01*
X137225000Y-116781250D01*
X137223826Y-116805142D01*
X137220316Y-116828803D01*
X137214504Y-116852007D01*
X137206446Y-116874529D01*
X137196218Y-116896153D01*
X137183921Y-116916670D01*
X137169671Y-116935883D01*
X137153607Y-116953607D01*
X137135883Y-116969671D01*
X137116670Y-116983921D01*
X137096153Y-116996218D01*
X137074529Y-117006446D01*
X137052007Y-117014504D01*
X137028803Y-117020316D01*
X137005142Y-117023826D01*
X136981250Y-117025000D01*
X136068750Y-117025000D01*
X136044858Y-117023826D01*
X136021197Y-117020316D01*
X135997993Y-117014504D01*
X135975471Y-117006446D01*
X135953847Y-116996218D01*
X135933330Y-116983921D01*
X135914117Y-116969671D01*
X135896393Y-116953607D01*
X135880329Y-116935883D01*
X135866079Y-116916670D01*
X135853782Y-116896153D01*
X135843554Y-116874529D01*
X135835496Y-116852007D01*
X135829684Y-116828803D01*
X135826174Y-116805142D01*
X135825000Y-116781250D01*
X135825000Y-116293750D01*
X135826174Y-116269858D01*
X135829684Y-116246197D01*
X135835496Y-116222993D01*
X135843554Y-116200471D01*
X135853782Y-116178847D01*
X135866079Y-116158330D01*
X135880329Y-116139117D01*
X135896393Y-116121393D01*
X135914117Y-116105329D01*
X135933330Y-116091079D01*
X135953847Y-116078782D01*
X135975471Y-116068554D01*
X135997993Y-116060496D01*
X136021197Y-116054684D01*
X136044858Y-116051174D01*
X136068750Y-116050000D01*
X136981250Y-116050000D01*
X137005142Y-116051174D01*
G37*
G36*
X49068254Y-73382454D02*
G01*
X49092523Y-73386054D01*
X49116321Y-73392015D01*
X49139421Y-73400280D01*
X49161599Y-73410770D01*
X49182643Y-73423383D01*
X49202348Y-73437997D01*
X49220527Y-73454473D01*
X49237003Y-73472652D01*
X49251617Y-73492357D01*
X49264230Y-73513401D01*
X49274720Y-73535579D01*
X49282985Y-73558679D01*
X49288946Y-73582477D01*
X49292546Y-73606746D01*
X49293750Y-73631250D01*
X49293750Y-74381250D01*
X49292546Y-74405754D01*
X49288946Y-74430023D01*
X49282985Y-74453821D01*
X49274720Y-74476921D01*
X49264230Y-74499099D01*
X49251617Y-74520143D01*
X49237003Y-74539848D01*
X49220527Y-74558027D01*
X49202348Y-74574503D01*
X49182643Y-74589117D01*
X49161599Y-74601730D01*
X49139421Y-74612220D01*
X49116321Y-74620485D01*
X49092523Y-74626446D01*
X49068254Y-74630046D01*
X49043750Y-74631250D01*
X47793750Y-74631250D01*
X47769246Y-74630046D01*
X47744977Y-74626446D01*
X47721179Y-74620485D01*
X47698079Y-74612220D01*
X47675901Y-74601730D01*
X47654857Y-74589117D01*
X47635152Y-74574503D01*
X47616973Y-74558027D01*
X47600497Y-74539848D01*
X47585883Y-74520143D01*
X47573270Y-74499099D01*
X47562780Y-74476921D01*
X47554515Y-74453821D01*
X47548554Y-74430023D01*
X47544954Y-74405754D01*
X47543750Y-74381250D01*
X47543750Y-73631250D01*
X47544954Y-73606746D01*
X47548554Y-73582477D01*
X47554515Y-73558679D01*
X47562780Y-73535579D01*
X47573270Y-73513401D01*
X47585883Y-73492357D01*
X47600497Y-73472652D01*
X47616973Y-73454473D01*
X47635152Y-73437997D01*
X47654857Y-73423383D01*
X47675901Y-73410770D01*
X47698079Y-73400280D01*
X47721179Y-73392015D01*
X47744977Y-73386054D01*
X47769246Y-73382454D01*
X47793750Y-73381250D01*
X49043750Y-73381250D01*
X49068254Y-73382454D01*
G37*
G36*
X49068254Y-76182454D02*
G01*
X49092523Y-76186054D01*
X49116321Y-76192015D01*
X49139421Y-76200280D01*
X49161599Y-76210770D01*
X49182643Y-76223383D01*
X49202348Y-76237997D01*
X49220527Y-76254473D01*
X49237003Y-76272652D01*
X49251617Y-76292357D01*
X49264230Y-76313401D01*
X49274720Y-76335579D01*
X49282985Y-76358679D01*
X49288946Y-76382477D01*
X49292546Y-76406746D01*
X49293750Y-76431250D01*
X49293750Y-77181250D01*
X49292546Y-77205754D01*
X49288946Y-77230023D01*
X49282985Y-77253821D01*
X49274720Y-77276921D01*
X49264230Y-77299099D01*
X49251617Y-77320143D01*
X49237003Y-77339848D01*
X49220527Y-77358027D01*
X49202348Y-77374503D01*
X49182643Y-77389117D01*
X49161599Y-77401730D01*
X49139421Y-77412220D01*
X49116321Y-77420485D01*
X49092523Y-77426446D01*
X49068254Y-77430046D01*
X49043750Y-77431250D01*
X47793750Y-77431250D01*
X47769246Y-77430046D01*
X47744977Y-77426446D01*
X47721179Y-77420485D01*
X47698079Y-77412220D01*
X47675901Y-77401730D01*
X47654857Y-77389117D01*
X47635152Y-77374503D01*
X47616973Y-77358027D01*
X47600497Y-77339848D01*
X47585883Y-77320143D01*
X47573270Y-77299099D01*
X47562780Y-77276921D01*
X47554515Y-77253821D01*
X47548554Y-77230023D01*
X47544954Y-77205754D01*
X47543750Y-77181250D01*
X47543750Y-76431250D01*
X47544954Y-76406746D01*
X47548554Y-76382477D01*
X47554515Y-76358679D01*
X47562780Y-76335579D01*
X47573270Y-76313401D01*
X47585883Y-76292357D01*
X47600497Y-76272652D01*
X47616973Y-76254473D01*
X47635152Y-76237997D01*
X47654857Y-76223383D01*
X47675901Y-76210770D01*
X47698079Y-76200280D01*
X47721179Y-76192015D01*
X47744977Y-76186054D01*
X47769246Y-76182454D01*
X47793750Y-76181250D01*
X49043750Y-76181250D01*
X49068254Y-76182454D01*
G37*
D16*
X275431250Y-125350000D03*
X275431250Y-128650000D03*
X256381250Y-125350000D03*
X256381250Y-128650000D03*
X237331250Y-125350000D03*
X237331250Y-128650000D03*
X207168750Y-125350000D03*
X207168750Y-128650000D03*
X175418750Y-125350000D03*
X175418750Y-128650000D03*
X140493750Y-125350000D03*
X140493750Y-128650000D03*
X103981250Y-125350000D03*
X103981250Y-128650000D03*
X84931250Y-125350000D03*
X84931250Y-128650000D03*
X65881250Y-125350000D03*
X65881250Y-128650000D03*
X46831250Y-125350000D03*
X46831250Y-128650000D03*
X275431250Y-106300000D03*
X275431250Y-109600000D03*
X256381250Y-106300000D03*
X256381250Y-109600000D03*
X237331250Y-106300000D03*
X237331250Y-109600000D03*
X218281250Y-106300000D03*
X218281250Y-109600000D03*
X199231250Y-106300000D03*
X199231250Y-109600000D03*
X180181250Y-106300000D03*
X180181250Y-109600000D03*
X161131250Y-106300000D03*
X161131250Y-109600000D03*
X142081250Y-106300000D03*
X142081250Y-109600000D03*
X123031250Y-106300000D03*
X123031250Y-109600000D03*
X103981250Y-106300000D03*
X103981250Y-109600000D03*
X84931250Y-106300000D03*
X84931250Y-109600000D03*
X65881250Y-106300000D03*
X65881250Y-109600000D03*
X46831250Y-106300000D03*
X46831250Y-109600000D03*
X275431250Y-87250000D03*
X275431250Y-90550000D03*
X256381250Y-87250000D03*
X256381250Y-90550000D03*
X237331250Y-87250000D03*
X237331250Y-90550000D03*
X218281250Y-87250000D03*
X218281250Y-90550000D03*
X199231250Y-87250000D03*
X199231250Y-90550000D03*
X180181250Y-87250000D03*
X180181250Y-90550000D03*
X161131250Y-87250000D03*
X161131250Y-90550000D03*
X142081250Y-87250000D03*
X142081250Y-90550000D03*
X123031250Y-87250000D03*
X123031250Y-90550000D03*
X103981250Y-87250000D03*
X103981250Y-90550000D03*
X84931250Y-87250000D03*
X84931250Y-90550000D03*
X65881250Y-87250000D03*
X65881250Y-90550000D03*
X46831250Y-87250000D03*
X46831250Y-90550000D03*
X275431250Y-68200000D03*
X275431250Y-71500000D03*
X256381250Y-68200000D03*
X256381250Y-71500000D03*
X237331250Y-68200000D03*
X237331250Y-71500000D03*
X218281250Y-68200000D03*
X218281250Y-71500000D03*
X199231250Y-68200000D03*
X199231250Y-71500000D03*
X180181250Y-68200000D03*
X180181250Y-71500000D03*
X161131250Y-68200000D03*
X161131250Y-71500000D03*
X142081250Y-68200000D03*
X142081250Y-71500000D03*
X123031250Y-68200000D03*
X123031250Y-71500000D03*
X103981250Y-68200000D03*
X103981250Y-71500000D03*
X84931250Y-68200000D03*
X84931250Y-71500000D03*
X65881250Y-68200000D03*
X65881250Y-71500000D03*
X46831250Y-68200000D03*
X46831250Y-71500000D03*
D15*
G36*
X151393255Y-134238704D02*
G01*
X151417523Y-134242304D01*
X151441322Y-134248265D01*
X151464421Y-134256530D01*
X151486600Y-134267020D01*
X151507643Y-134279632D01*
X151527349Y-134294247D01*
X151545527Y-134310723D01*
X151562003Y-134328901D01*
X151576618Y-134348607D01*
X151589230Y-134369650D01*
X151599720Y-134391829D01*
X151607985Y-134414928D01*
X151613946Y-134438727D01*
X151617546Y-134462995D01*
X151618750Y-134487499D01*
X151618750Y-135387501D01*
X151617546Y-135412005D01*
X151613946Y-135436273D01*
X151607985Y-135460072D01*
X151599720Y-135483171D01*
X151589230Y-135505350D01*
X151576618Y-135526393D01*
X151562003Y-135546099D01*
X151545527Y-135564277D01*
X151527349Y-135580753D01*
X151507643Y-135595368D01*
X151486600Y-135607980D01*
X151464421Y-135618470D01*
X151441322Y-135626735D01*
X151417523Y-135632696D01*
X151393255Y-135636296D01*
X151368751Y-135637500D01*
X150718749Y-135637500D01*
X150694245Y-135636296D01*
X150669977Y-135632696D01*
X150646178Y-135626735D01*
X150623079Y-135618470D01*
X150600900Y-135607980D01*
X150579857Y-135595368D01*
X150560151Y-135580753D01*
X150541973Y-135564277D01*
X150525497Y-135546099D01*
X150510882Y-135526393D01*
X150498270Y-135505350D01*
X150487780Y-135483171D01*
X150479515Y-135460072D01*
X150473554Y-135436273D01*
X150469954Y-135412005D01*
X150468750Y-135387501D01*
X150468750Y-134487499D01*
X150469954Y-134462995D01*
X150473554Y-134438727D01*
X150479515Y-134414928D01*
X150487780Y-134391829D01*
X150498270Y-134369650D01*
X150510882Y-134348607D01*
X150525497Y-134328901D01*
X150541973Y-134310723D01*
X150560151Y-134294247D01*
X150579857Y-134279632D01*
X150600900Y-134267020D01*
X150623079Y-134256530D01*
X150646178Y-134248265D01*
X150669977Y-134242304D01*
X150694245Y-134238704D01*
X150718749Y-134237500D01*
X151368751Y-134237500D01*
X151393255Y-134238704D01*
G37*
G36*
X149343255Y-134238704D02*
G01*
X149367523Y-134242304D01*
X149391322Y-134248265D01*
X149414421Y-134256530D01*
X149436600Y-134267020D01*
X149457643Y-134279632D01*
X149477349Y-134294247D01*
X149495527Y-134310723D01*
X149512003Y-134328901D01*
X149526618Y-134348607D01*
X149539230Y-134369650D01*
X149549720Y-134391829D01*
X149557985Y-134414928D01*
X149563946Y-134438727D01*
X149567546Y-134462995D01*
X149568750Y-134487499D01*
X149568750Y-135387501D01*
X149567546Y-135412005D01*
X149563946Y-135436273D01*
X149557985Y-135460072D01*
X149549720Y-135483171D01*
X149539230Y-135505350D01*
X149526618Y-135526393D01*
X149512003Y-135546099D01*
X149495527Y-135564277D01*
X149477349Y-135580753D01*
X149457643Y-135595368D01*
X149436600Y-135607980D01*
X149414421Y-135618470D01*
X149391322Y-135626735D01*
X149367523Y-135632696D01*
X149343255Y-135636296D01*
X149318751Y-135637500D01*
X148668749Y-135637500D01*
X148644245Y-135636296D01*
X148619977Y-135632696D01*
X148596178Y-135626735D01*
X148573079Y-135618470D01*
X148550900Y-135607980D01*
X148529857Y-135595368D01*
X148510151Y-135580753D01*
X148491973Y-135564277D01*
X148475497Y-135546099D01*
X148460882Y-135526393D01*
X148448270Y-135505350D01*
X148437780Y-135483171D01*
X148429515Y-135460072D01*
X148423554Y-135436273D01*
X148419954Y-135412005D01*
X148418750Y-135387501D01*
X148418750Y-134487499D01*
X148419954Y-134462995D01*
X148423554Y-134438727D01*
X148429515Y-134414928D01*
X148437780Y-134391829D01*
X148448270Y-134369650D01*
X148460882Y-134348607D01*
X148475497Y-134328901D01*
X148491973Y-134310723D01*
X148510151Y-134294247D01*
X148529857Y-134279632D01*
X148550900Y-134267020D01*
X148573079Y-134256530D01*
X148596178Y-134248265D01*
X148619977Y-134242304D01*
X148644245Y-134238704D01*
X148668749Y-134237500D01*
X149318751Y-134237500D01*
X149343255Y-134238704D01*
G37*
G36*
X160812005Y-134594954D02*
G01*
X160836273Y-134598554D01*
X160860072Y-134604515D01*
X160883171Y-134612780D01*
X160905350Y-134623270D01*
X160926393Y-134635882D01*
X160946099Y-134650497D01*
X160964277Y-134666973D01*
X160980753Y-134685151D01*
X160995368Y-134704857D01*
X161007980Y-134725900D01*
X161018470Y-134748079D01*
X161026735Y-134771178D01*
X161032696Y-134794977D01*
X161036296Y-134819245D01*
X161037500Y-134843749D01*
X161037500Y-135493751D01*
X161036296Y-135518255D01*
X161032696Y-135542523D01*
X161026735Y-135566322D01*
X161018470Y-135589421D01*
X161007980Y-135611600D01*
X160995368Y-135632643D01*
X160980753Y-135652349D01*
X160964277Y-135670527D01*
X160946099Y-135687003D01*
X160926393Y-135701618D01*
X160905350Y-135714230D01*
X160883171Y-135724720D01*
X160860072Y-135732985D01*
X160836273Y-135738946D01*
X160812005Y-135742546D01*
X160787501Y-135743750D01*
X159887499Y-135743750D01*
X159862995Y-135742546D01*
X159838727Y-135738946D01*
X159814928Y-135732985D01*
X159791829Y-135724720D01*
X159769650Y-135714230D01*
X159748607Y-135701618D01*
X159728901Y-135687003D01*
X159710723Y-135670527D01*
X159694247Y-135652349D01*
X159679632Y-135632643D01*
X159667020Y-135611600D01*
X159656530Y-135589421D01*
X159648265Y-135566322D01*
X159642304Y-135542523D01*
X159638704Y-135518255D01*
X159637500Y-135493751D01*
X159637500Y-134843749D01*
X159638704Y-134819245D01*
X159642304Y-134794977D01*
X159648265Y-134771178D01*
X159656530Y-134748079D01*
X159667020Y-134725900D01*
X159679632Y-134704857D01*
X159694247Y-134685151D01*
X159710723Y-134666973D01*
X159728901Y-134650497D01*
X159748607Y-134635882D01*
X159769650Y-134623270D01*
X159791829Y-134612780D01*
X159814928Y-134604515D01*
X159838727Y-134598554D01*
X159862995Y-134594954D01*
X159887499Y-134593750D01*
X160787501Y-134593750D01*
X160812005Y-134594954D01*
G37*
G36*
X160812005Y-132544954D02*
G01*
X160836273Y-132548554D01*
X160860072Y-132554515D01*
X160883171Y-132562780D01*
X160905350Y-132573270D01*
X160926393Y-132585882D01*
X160946099Y-132600497D01*
X160964277Y-132616973D01*
X160980753Y-132635151D01*
X160995368Y-132654857D01*
X161007980Y-132675900D01*
X161018470Y-132698079D01*
X161026735Y-132721178D01*
X161032696Y-132744977D01*
X161036296Y-132769245D01*
X161037500Y-132793749D01*
X161037500Y-133443751D01*
X161036296Y-133468255D01*
X161032696Y-133492523D01*
X161026735Y-133516322D01*
X161018470Y-133539421D01*
X161007980Y-133561600D01*
X160995368Y-133582643D01*
X160980753Y-133602349D01*
X160964277Y-133620527D01*
X160946099Y-133637003D01*
X160926393Y-133651618D01*
X160905350Y-133664230D01*
X160883171Y-133674720D01*
X160860072Y-133682985D01*
X160836273Y-133688946D01*
X160812005Y-133692546D01*
X160787501Y-133693750D01*
X159887499Y-133693750D01*
X159862995Y-133692546D01*
X159838727Y-133688946D01*
X159814928Y-133682985D01*
X159791829Y-133674720D01*
X159769650Y-133664230D01*
X159748607Y-133651618D01*
X159728901Y-133637003D01*
X159710723Y-133620527D01*
X159694247Y-133602349D01*
X159679632Y-133582643D01*
X159667020Y-133561600D01*
X159656530Y-133539421D01*
X159648265Y-133516322D01*
X159642304Y-133492523D01*
X159638704Y-133468255D01*
X159637500Y-133443751D01*
X159637500Y-132793749D01*
X159638704Y-132769245D01*
X159642304Y-132744977D01*
X159648265Y-132721178D01*
X159656530Y-132698079D01*
X159667020Y-132675900D01*
X159679632Y-132654857D01*
X159694247Y-132635151D01*
X159710723Y-132616973D01*
X159728901Y-132600497D01*
X159748607Y-132585882D01*
X159769650Y-132573270D01*
X159791829Y-132562780D01*
X159814928Y-132554515D01*
X159838727Y-132548554D01*
X159862995Y-132544954D01*
X159887499Y-132543750D01*
X160787501Y-132543750D01*
X160812005Y-132544954D01*
G37*
G36*
X172718255Y-115876204D02*
G01*
X172742523Y-115879804D01*
X172766322Y-115885765D01*
X172789421Y-115894030D01*
X172811600Y-115904520D01*
X172832643Y-115917132D01*
X172852349Y-115931747D01*
X172870527Y-115948223D01*
X172887003Y-115966401D01*
X172901618Y-115986107D01*
X172914230Y-116007150D01*
X172924720Y-116029329D01*
X172932985Y-116052428D01*
X172938946Y-116076227D01*
X172942546Y-116100495D01*
X172943750Y-116124999D01*
X172943750Y-116775001D01*
X172942546Y-116799505D01*
X172938946Y-116823773D01*
X172932985Y-116847572D01*
X172924720Y-116870671D01*
X172914230Y-116892850D01*
X172901618Y-116913893D01*
X172887003Y-116933599D01*
X172870527Y-116951777D01*
X172852349Y-116968253D01*
X172832643Y-116982868D01*
X172811600Y-116995480D01*
X172789421Y-117005970D01*
X172766322Y-117014235D01*
X172742523Y-117020196D01*
X172718255Y-117023796D01*
X172693751Y-117025000D01*
X171793749Y-117025000D01*
X171769245Y-117023796D01*
X171744977Y-117020196D01*
X171721178Y-117014235D01*
X171698079Y-117005970D01*
X171675900Y-116995480D01*
X171654857Y-116982868D01*
X171635151Y-116968253D01*
X171616973Y-116951777D01*
X171600497Y-116933599D01*
X171585882Y-116913893D01*
X171573270Y-116892850D01*
X171562780Y-116870671D01*
X171554515Y-116847572D01*
X171548554Y-116823773D01*
X171544954Y-116799505D01*
X171543750Y-116775001D01*
X171543750Y-116124999D01*
X171544954Y-116100495D01*
X171548554Y-116076227D01*
X171554515Y-116052428D01*
X171562780Y-116029329D01*
X171573270Y-116007150D01*
X171585882Y-115986107D01*
X171600497Y-115966401D01*
X171616973Y-115948223D01*
X171635151Y-115931747D01*
X171654857Y-115917132D01*
X171675900Y-115904520D01*
X171698079Y-115894030D01*
X171721178Y-115885765D01*
X171744977Y-115879804D01*
X171769245Y-115876204D01*
X171793749Y-115875000D01*
X172693751Y-115875000D01*
X172718255Y-115876204D01*
G37*
G36*
X172718255Y-117926204D02*
G01*
X172742523Y-117929804D01*
X172766322Y-117935765D01*
X172789421Y-117944030D01*
X172811600Y-117954520D01*
X172832643Y-117967132D01*
X172852349Y-117981747D01*
X172870527Y-117998223D01*
X172887003Y-118016401D01*
X172901618Y-118036107D01*
X172914230Y-118057150D01*
X172924720Y-118079329D01*
X172932985Y-118102428D01*
X172938946Y-118126227D01*
X172942546Y-118150495D01*
X172943750Y-118174999D01*
X172943750Y-118825001D01*
X172942546Y-118849505D01*
X172938946Y-118873773D01*
X172932985Y-118897572D01*
X172924720Y-118920671D01*
X172914230Y-118942850D01*
X172901618Y-118963893D01*
X172887003Y-118983599D01*
X172870527Y-119001777D01*
X172852349Y-119018253D01*
X172832643Y-119032868D01*
X172811600Y-119045480D01*
X172789421Y-119055970D01*
X172766322Y-119064235D01*
X172742523Y-119070196D01*
X172718255Y-119073796D01*
X172693751Y-119075000D01*
X171793749Y-119075000D01*
X171769245Y-119073796D01*
X171744977Y-119070196D01*
X171721178Y-119064235D01*
X171698079Y-119055970D01*
X171675900Y-119045480D01*
X171654857Y-119032868D01*
X171635151Y-119018253D01*
X171616973Y-119001777D01*
X171600497Y-118983599D01*
X171585882Y-118963893D01*
X171573270Y-118942850D01*
X171562780Y-118920671D01*
X171554515Y-118897572D01*
X171548554Y-118873773D01*
X171544954Y-118849505D01*
X171543750Y-118825001D01*
X171543750Y-118174999D01*
X171544954Y-118150495D01*
X171548554Y-118126227D01*
X171554515Y-118102428D01*
X171562780Y-118079329D01*
X171573270Y-118057150D01*
X171585882Y-118036107D01*
X171600497Y-118016401D01*
X171616973Y-117998223D01*
X171635151Y-117981747D01*
X171654857Y-117967132D01*
X171675900Y-117954520D01*
X171698079Y-117944030D01*
X171721178Y-117935765D01*
X171744977Y-117929804D01*
X171769245Y-117926204D01*
X171793749Y-117925000D01*
X172693751Y-117925000D01*
X172718255Y-117926204D01*
G37*
G36*
X146962005Y-117569954D02*
G01*
X146986273Y-117573554D01*
X147010072Y-117579515D01*
X147033171Y-117587780D01*
X147055350Y-117598270D01*
X147076393Y-117610882D01*
X147096099Y-117625497D01*
X147114277Y-117641973D01*
X147130753Y-117660151D01*
X147145368Y-117679857D01*
X147157980Y-117700900D01*
X147168470Y-117723079D01*
X147176735Y-117746178D01*
X147182696Y-117769977D01*
X147186296Y-117794245D01*
X147187500Y-117818749D01*
X147187500Y-118718751D01*
X147186296Y-118743255D01*
X147182696Y-118767523D01*
X147176735Y-118791322D01*
X147168470Y-118814421D01*
X147157980Y-118836600D01*
X147145368Y-118857643D01*
X147130753Y-118877349D01*
X147114277Y-118895527D01*
X147096099Y-118912003D01*
X147076393Y-118926618D01*
X147055350Y-118939230D01*
X147033171Y-118949720D01*
X147010072Y-118957985D01*
X146986273Y-118963946D01*
X146962005Y-118967546D01*
X146937501Y-118968750D01*
X146287499Y-118968750D01*
X146262995Y-118967546D01*
X146238727Y-118963946D01*
X146214928Y-118957985D01*
X146191829Y-118949720D01*
X146169650Y-118939230D01*
X146148607Y-118926618D01*
X146128901Y-118912003D01*
X146110723Y-118895527D01*
X146094247Y-118877349D01*
X146079632Y-118857643D01*
X146067020Y-118836600D01*
X146056530Y-118814421D01*
X146048265Y-118791322D01*
X146042304Y-118767523D01*
X146038704Y-118743255D01*
X146037500Y-118718751D01*
X146037500Y-117818749D01*
X146038704Y-117794245D01*
X146042304Y-117769977D01*
X146048265Y-117746178D01*
X146056530Y-117723079D01*
X146067020Y-117700900D01*
X146079632Y-117679857D01*
X146094247Y-117660151D01*
X146110723Y-117641973D01*
X146128901Y-117625497D01*
X146148607Y-117610882D01*
X146169650Y-117598270D01*
X146191829Y-117587780D01*
X146214928Y-117579515D01*
X146238727Y-117573554D01*
X146262995Y-117569954D01*
X146287499Y-117568750D01*
X146937501Y-117568750D01*
X146962005Y-117569954D01*
G37*
G36*
X149012005Y-117569954D02*
G01*
X149036273Y-117573554D01*
X149060072Y-117579515D01*
X149083171Y-117587780D01*
X149105350Y-117598270D01*
X149126393Y-117610882D01*
X149146099Y-117625497D01*
X149164277Y-117641973D01*
X149180753Y-117660151D01*
X149195368Y-117679857D01*
X149207980Y-117700900D01*
X149218470Y-117723079D01*
X149226735Y-117746178D01*
X149232696Y-117769977D01*
X149236296Y-117794245D01*
X149237500Y-117818749D01*
X149237500Y-118718751D01*
X149236296Y-118743255D01*
X149232696Y-118767523D01*
X149226735Y-118791322D01*
X149218470Y-118814421D01*
X149207980Y-118836600D01*
X149195368Y-118857643D01*
X149180753Y-118877349D01*
X149164277Y-118895527D01*
X149146099Y-118912003D01*
X149126393Y-118926618D01*
X149105350Y-118939230D01*
X149083171Y-118949720D01*
X149060072Y-118957985D01*
X149036273Y-118963946D01*
X149012005Y-118967546D01*
X148987501Y-118968750D01*
X148337499Y-118968750D01*
X148312995Y-118967546D01*
X148288727Y-118963946D01*
X148264928Y-118957985D01*
X148241829Y-118949720D01*
X148219650Y-118939230D01*
X148198607Y-118926618D01*
X148178901Y-118912003D01*
X148160723Y-118895527D01*
X148144247Y-118877349D01*
X148129632Y-118857643D01*
X148117020Y-118836600D01*
X148106530Y-118814421D01*
X148098265Y-118791322D01*
X148092304Y-118767523D01*
X148088704Y-118743255D01*
X148087500Y-118718751D01*
X148087500Y-117818749D01*
X148088704Y-117794245D01*
X148092304Y-117769977D01*
X148098265Y-117746178D01*
X148106530Y-117723079D01*
X148117020Y-117700900D01*
X148129632Y-117679857D01*
X148144247Y-117660151D01*
X148160723Y-117641973D01*
X148178901Y-117625497D01*
X148198607Y-117610882D01*
X148219650Y-117598270D01*
X148241829Y-117587780D01*
X148264928Y-117579515D01*
X148288727Y-117573554D01*
X148312995Y-117569954D01*
X148337499Y-117568750D01*
X148987501Y-117568750D01*
X149012005Y-117569954D01*
G37*
G36*
X143349505Y-129832454D02*
G01*
X143373773Y-129836054D01*
X143397572Y-129842015D01*
X143420671Y-129850280D01*
X143442850Y-129860770D01*
X143463893Y-129873382D01*
X143483599Y-129887997D01*
X143501777Y-129904473D01*
X143518253Y-129922651D01*
X143532868Y-129942357D01*
X143545480Y-129963400D01*
X143555970Y-129985579D01*
X143564235Y-130008678D01*
X143570196Y-130032477D01*
X143573796Y-130056745D01*
X143575000Y-130081249D01*
X143575000Y-130731251D01*
X143573796Y-130755755D01*
X143570196Y-130780023D01*
X143564235Y-130803822D01*
X143555970Y-130826921D01*
X143545480Y-130849100D01*
X143532868Y-130870143D01*
X143518253Y-130889849D01*
X143501777Y-130908027D01*
X143483599Y-130924503D01*
X143463893Y-130939118D01*
X143442850Y-130951730D01*
X143420671Y-130962220D01*
X143397572Y-130970485D01*
X143373773Y-130976446D01*
X143349505Y-130980046D01*
X143325001Y-130981250D01*
X142424999Y-130981250D01*
X142400495Y-130980046D01*
X142376227Y-130976446D01*
X142352428Y-130970485D01*
X142329329Y-130962220D01*
X142307150Y-130951730D01*
X142286107Y-130939118D01*
X142266401Y-130924503D01*
X142248223Y-130908027D01*
X142231747Y-130889849D01*
X142217132Y-130870143D01*
X142204520Y-130849100D01*
X142194030Y-130826921D01*
X142185765Y-130803822D01*
X142179804Y-130780023D01*
X142176204Y-130755755D01*
X142175000Y-130731251D01*
X142175000Y-130081249D01*
X142176204Y-130056745D01*
X142179804Y-130032477D01*
X142185765Y-130008678D01*
X142194030Y-129985579D01*
X142204520Y-129963400D01*
X142217132Y-129942357D01*
X142231747Y-129922651D01*
X142248223Y-129904473D01*
X142266401Y-129887997D01*
X142286107Y-129873382D01*
X142307150Y-129860770D01*
X142329329Y-129850280D01*
X142352428Y-129842015D01*
X142376227Y-129836054D01*
X142400495Y-129832454D01*
X142424999Y-129831250D01*
X143325001Y-129831250D01*
X143349505Y-129832454D01*
G37*
G36*
X143349505Y-127782454D02*
G01*
X143373773Y-127786054D01*
X143397572Y-127792015D01*
X143420671Y-127800280D01*
X143442850Y-127810770D01*
X143463893Y-127823382D01*
X143483599Y-127837997D01*
X143501777Y-127854473D01*
X143518253Y-127872651D01*
X143532868Y-127892357D01*
X143545480Y-127913400D01*
X143555970Y-127935579D01*
X143564235Y-127958678D01*
X143570196Y-127982477D01*
X143573796Y-128006745D01*
X143575000Y-128031249D01*
X143575000Y-128681251D01*
X143573796Y-128705755D01*
X143570196Y-128730023D01*
X143564235Y-128753822D01*
X143555970Y-128776921D01*
X143545480Y-128799100D01*
X143532868Y-128820143D01*
X143518253Y-128839849D01*
X143501777Y-128858027D01*
X143483599Y-128874503D01*
X143463893Y-128889118D01*
X143442850Y-128901730D01*
X143420671Y-128912220D01*
X143397572Y-128920485D01*
X143373773Y-128926446D01*
X143349505Y-128930046D01*
X143325001Y-128931250D01*
X142424999Y-128931250D01*
X142400495Y-128930046D01*
X142376227Y-128926446D01*
X142352428Y-128920485D01*
X142329329Y-128912220D01*
X142307150Y-128901730D01*
X142286107Y-128889118D01*
X142266401Y-128874503D01*
X142248223Y-128858027D01*
X142231747Y-128839849D01*
X142217132Y-128820143D01*
X142204520Y-128799100D01*
X142194030Y-128776921D01*
X142185765Y-128753822D01*
X142179804Y-128730023D01*
X142176204Y-128705755D01*
X142175000Y-128681251D01*
X142175000Y-128031249D01*
X142176204Y-128006745D01*
X142179804Y-127982477D01*
X142185765Y-127958678D01*
X142194030Y-127935579D01*
X142204520Y-127913400D01*
X142217132Y-127892357D01*
X142231747Y-127872651D01*
X142248223Y-127854473D01*
X142266401Y-127837997D01*
X142286107Y-127823382D01*
X142307150Y-127810770D01*
X142329329Y-127800280D01*
X142352428Y-127792015D01*
X142376227Y-127786054D01*
X142400495Y-127782454D01*
X142424999Y-127781250D01*
X143325001Y-127781250D01*
X143349505Y-127782454D01*
G37*
G36*
X167955755Y-117926204D02*
G01*
X167980023Y-117929804D01*
X168003822Y-117935765D01*
X168026921Y-117944030D01*
X168049100Y-117954520D01*
X168070143Y-117967132D01*
X168089849Y-117981747D01*
X168108027Y-117998223D01*
X168124503Y-118016401D01*
X168139118Y-118036107D01*
X168151730Y-118057150D01*
X168162220Y-118079329D01*
X168170485Y-118102428D01*
X168176446Y-118126227D01*
X168180046Y-118150495D01*
X168181250Y-118174999D01*
X168181250Y-118825001D01*
X168180046Y-118849505D01*
X168176446Y-118873773D01*
X168170485Y-118897572D01*
X168162220Y-118920671D01*
X168151730Y-118942850D01*
X168139118Y-118963893D01*
X168124503Y-118983599D01*
X168108027Y-119001777D01*
X168089849Y-119018253D01*
X168070143Y-119032868D01*
X168049100Y-119045480D01*
X168026921Y-119055970D01*
X168003822Y-119064235D01*
X167980023Y-119070196D01*
X167955755Y-119073796D01*
X167931251Y-119075000D01*
X167031249Y-119075000D01*
X167006745Y-119073796D01*
X166982477Y-119070196D01*
X166958678Y-119064235D01*
X166935579Y-119055970D01*
X166913400Y-119045480D01*
X166892357Y-119032868D01*
X166872651Y-119018253D01*
X166854473Y-119001777D01*
X166837997Y-118983599D01*
X166823382Y-118963893D01*
X166810770Y-118942850D01*
X166800280Y-118920671D01*
X166792015Y-118897572D01*
X166786054Y-118873773D01*
X166782454Y-118849505D01*
X166781250Y-118825001D01*
X166781250Y-118174999D01*
X166782454Y-118150495D01*
X166786054Y-118126227D01*
X166792015Y-118102428D01*
X166800280Y-118079329D01*
X166810770Y-118057150D01*
X166823382Y-118036107D01*
X166837997Y-118016401D01*
X166854473Y-117998223D01*
X166872651Y-117981747D01*
X166892357Y-117967132D01*
X166913400Y-117954520D01*
X166935579Y-117944030D01*
X166958678Y-117935765D01*
X166982477Y-117929804D01*
X167006745Y-117926204D01*
X167031249Y-117925000D01*
X167931251Y-117925000D01*
X167955755Y-117926204D01*
G37*
G36*
X167955755Y-115876204D02*
G01*
X167980023Y-115879804D01*
X168003822Y-115885765D01*
X168026921Y-115894030D01*
X168049100Y-115904520D01*
X168070143Y-115917132D01*
X168089849Y-115931747D01*
X168108027Y-115948223D01*
X168124503Y-115966401D01*
X168139118Y-115986107D01*
X168151730Y-116007150D01*
X168162220Y-116029329D01*
X168170485Y-116052428D01*
X168176446Y-116076227D01*
X168180046Y-116100495D01*
X168181250Y-116124999D01*
X168181250Y-116775001D01*
X168180046Y-116799505D01*
X168176446Y-116823773D01*
X168170485Y-116847572D01*
X168162220Y-116870671D01*
X168151730Y-116892850D01*
X168139118Y-116913893D01*
X168124503Y-116933599D01*
X168108027Y-116951777D01*
X168089849Y-116968253D01*
X168070143Y-116982868D01*
X168049100Y-116995480D01*
X168026921Y-117005970D01*
X168003822Y-117014235D01*
X167980023Y-117020196D01*
X167955755Y-117023796D01*
X167931251Y-117025000D01*
X167031249Y-117025000D01*
X167006745Y-117023796D01*
X166982477Y-117020196D01*
X166958678Y-117014235D01*
X166935579Y-117005970D01*
X166913400Y-116995480D01*
X166892357Y-116982868D01*
X166872651Y-116968253D01*
X166854473Y-116951777D01*
X166837997Y-116933599D01*
X166823382Y-116913893D01*
X166810770Y-116892850D01*
X166800280Y-116870671D01*
X166792015Y-116847572D01*
X166786054Y-116823773D01*
X166782454Y-116799505D01*
X166781250Y-116775001D01*
X166781250Y-116124999D01*
X166782454Y-116100495D01*
X166786054Y-116076227D01*
X166792015Y-116052428D01*
X166800280Y-116029329D01*
X166810770Y-116007150D01*
X166823382Y-115986107D01*
X166837997Y-115966401D01*
X166854473Y-115948223D01*
X166872651Y-115931747D01*
X166892357Y-115917132D01*
X166913400Y-115904520D01*
X166935579Y-115894030D01*
X166958678Y-115885765D01*
X166982477Y-115879804D01*
X167006745Y-115876204D01*
X167031249Y-115875000D01*
X167931251Y-115875000D01*
X167955755Y-115876204D01*
G37*
G36*
X158430755Y-117926204D02*
G01*
X158455023Y-117929804D01*
X158478822Y-117935765D01*
X158501921Y-117944030D01*
X158524100Y-117954520D01*
X158545143Y-117967132D01*
X158564849Y-117981747D01*
X158583027Y-117998223D01*
X158599503Y-118016401D01*
X158614118Y-118036107D01*
X158626730Y-118057150D01*
X158637220Y-118079329D01*
X158645485Y-118102428D01*
X158651446Y-118126227D01*
X158655046Y-118150495D01*
X158656250Y-118174999D01*
X158656250Y-118825001D01*
X158655046Y-118849505D01*
X158651446Y-118873773D01*
X158645485Y-118897572D01*
X158637220Y-118920671D01*
X158626730Y-118942850D01*
X158614118Y-118963893D01*
X158599503Y-118983599D01*
X158583027Y-119001777D01*
X158564849Y-119018253D01*
X158545143Y-119032868D01*
X158524100Y-119045480D01*
X158501921Y-119055970D01*
X158478822Y-119064235D01*
X158455023Y-119070196D01*
X158430755Y-119073796D01*
X158406251Y-119075000D01*
X157506249Y-119075000D01*
X157481745Y-119073796D01*
X157457477Y-119070196D01*
X157433678Y-119064235D01*
X157410579Y-119055970D01*
X157388400Y-119045480D01*
X157367357Y-119032868D01*
X157347651Y-119018253D01*
X157329473Y-119001777D01*
X157312997Y-118983599D01*
X157298382Y-118963893D01*
X157285770Y-118942850D01*
X157275280Y-118920671D01*
X157267015Y-118897572D01*
X157261054Y-118873773D01*
X157257454Y-118849505D01*
X157256250Y-118825001D01*
X157256250Y-118174999D01*
X157257454Y-118150495D01*
X157261054Y-118126227D01*
X157267015Y-118102428D01*
X157275280Y-118079329D01*
X157285770Y-118057150D01*
X157298382Y-118036107D01*
X157312997Y-118016401D01*
X157329473Y-117998223D01*
X157347651Y-117981747D01*
X157367357Y-117967132D01*
X157388400Y-117954520D01*
X157410579Y-117944030D01*
X157433678Y-117935765D01*
X157457477Y-117929804D01*
X157481745Y-117926204D01*
X157506249Y-117925000D01*
X158406251Y-117925000D01*
X158430755Y-117926204D01*
G37*
G36*
X158430755Y-115876204D02*
G01*
X158455023Y-115879804D01*
X158478822Y-115885765D01*
X158501921Y-115894030D01*
X158524100Y-115904520D01*
X158545143Y-115917132D01*
X158564849Y-115931747D01*
X158583027Y-115948223D01*
X158599503Y-115966401D01*
X158614118Y-115986107D01*
X158626730Y-116007150D01*
X158637220Y-116029329D01*
X158645485Y-116052428D01*
X158651446Y-116076227D01*
X158655046Y-116100495D01*
X158656250Y-116124999D01*
X158656250Y-116775001D01*
X158655046Y-116799505D01*
X158651446Y-116823773D01*
X158645485Y-116847572D01*
X158637220Y-116870671D01*
X158626730Y-116892850D01*
X158614118Y-116913893D01*
X158599503Y-116933599D01*
X158583027Y-116951777D01*
X158564849Y-116968253D01*
X158545143Y-116982868D01*
X158524100Y-116995480D01*
X158501921Y-117005970D01*
X158478822Y-117014235D01*
X158455023Y-117020196D01*
X158430755Y-117023796D01*
X158406251Y-117025000D01*
X157506249Y-117025000D01*
X157481745Y-117023796D01*
X157457477Y-117020196D01*
X157433678Y-117014235D01*
X157410579Y-117005970D01*
X157388400Y-116995480D01*
X157367357Y-116982868D01*
X157347651Y-116968253D01*
X157329473Y-116951777D01*
X157312997Y-116933599D01*
X157298382Y-116913893D01*
X157285770Y-116892850D01*
X157275280Y-116870671D01*
X157267015Y-116847572D01*
X157261054Y-116823773D01*
X157257454Y-116799505D01*
X157256250Y-116775001D01*
X157256250Y-116124999D01*
X157257454Y-116100495D01*
X157261054Y-116076227D01*
X157267015Y-116052428D01*
X157275280Y-116029329D01*
X157285770Y-116007150D01*
X157298382Y-115986107D01*
X157312997Y-115966401D01*
X157329473Y-115948223D01*
X157347651Y-115931747D01*
X157367357Y-115917132D01*
X157388400Y-115904520D01*
X157410579Y-115894030D01*
X157433678Y-115885765D01*
X157457477Y-115879804D01*
X157481745Y-115876204D01*
X157506249Y-115875000D01*
X158406251Y-115875000D01*
X158430755Y-115876204D01*
G37*
M02*
